<svg width="366" height="104" viewBox="0 0 366 104" fill="none" xmlns="http://www.w3.org/2000/svg">
<g filter="url(#filter0_d_174_70)">
<rect x="4" width="358" height="96" rx="48" fill="black" fill-opacity="0.91"/>
<path d="M91.7235 55.3491C97.1771 52.4247 101.312 50.1964 101.668 50.0233C102.808 49.4312 103.985 47.8642 101.668 46.6471C100.92 46.2644 96.8917 44.1054 91.7235 41.3213L84.5591 48.3871L91.7235 55.3491Z" fill="#FFA700"/>
<path d="M84.5589 48.3872L61.7465 70.84C62.2819 70.9092 62.8865 70.7707 63.5992 70.3881C65.0955 69.5882 80.958 61.1286 91.7233 55.3509L84.5589 48.3872Z" fill="#D62D20"/>
<path d="M84.5586 48.3873L91.7231 41.3561C91.7231 41.3561 65.2034 27.2227 63.5989 26.3881C62.9944 26.0384 62.3171 25.9345 61.7108 26.0384L84.5586 48.3873Z" fill="#008744"/>
<path d="M84.5588 48.3872L61.7109 26.0383C60.7836 26.2478 60 27.0477 60 28.6839V68.1944C60 69.6921 60.6063 70.7707 61.7463 70.8746L84.5588 48.3872Z" fill="#0057E7"/>
<path d="M147.972 43.5093C147.972 45.6693 147.264 47.4093 145.848 48.7293C144.432 50.0493 142.308 50.7093 139.476 50.7093H134.4V61.4373H131.88V36.2733H139.476C142.284 36.2733 144.396 36.9333 145.812 38.2533C147.252 39.5733 147.972 41.3253 147.972 43.5093ZM139.476 48.5493C143.412 48.5493 145.38 46.8693 145.38 43.5093C145.38 41.8293 144.912 40.5573 143.976 39.6933C143.04 38.8293 141.54 38.3973 139.476 38.3973H134.4V48.5493H139.476ZM154.72 34.7973V61.4373H152.2V34.7973H154.72ZM159.275 51.5733C159.275 49.5573 159.671 47.7933 160.463 46.2813C161.279 44.7453 162.395 43.5693 163.811 42.7533C165.251 41.9133 166.871 41.4933 168.671 41.4933C170.543 41.4933 172.151 41.9253 173.495 42.7893C174.863 43.6533 175.847 44.7573 176.447 46.1013V41.7813H178.967V61.4373H176.447V57.0813C175.823 58.4253 174.827 59.5413 173.459 60.4293C172.115 61.2933 170.507 61.7253 168.635 61.7253C166.859 61.7253 165.251 61.3053 163.811 60.4653C162.395 59.6253 161.279 58.4373 160.463 56.9013C159.671 55.3653 159.275 53.5893 159.275 51.5733ZM176.447 51.6093C176.447 50.0253 176.123 48.6333 175.475 47.4333C174.827 46.2333 173.939 45.3093 172.811 44.6613C171.707 44.0133 170.483 43.6893 169.139 43.6893C167.747 43.6893 166.499 44.0013 165.395 44.6253C164.291 45.2493 163.415 46.1613 162.767 47.3613C162.143 48.5373 161.831 49.9413 161.831 51.5733C161.831 53.1813 162.143 54.5973 162.767 55.8213C163.415 57.0213 164.291 57.9453 165.395 58.5933C166.499 59.2173 167.747 59.5293 169.139 59.5293C170.483 59.5293 171.707 59.2053 172.811 58.5573C173.939 57.9093 174.827 56.9853 175.475 55.7853C176.123 54.5853 176.447 53.1933 176.447 51.6093ZM200.92 41.7813L189.256 70.6893H186.628L190.444 61.3293L182.38 41.7813H185.152L191.848 58.5573L198.328 41.7813H200.92ZM221.848 61.6893C220.192 61.6893 218.728 61.4013 217.456 60.8253C216.208 60.2493 215.224 59.4453 214.504 58.4133C213.784 57.3813 213.4 56.2293 213.352 54.9573H216.016C216.136 56.1813 216.676 57.2613 217.636 58.1973C218.596 59.1093 220 59.5653 221.848 59.5653C223.552 59.5653 224.896 59.1333 225.88 58.2693C226.888 57.3813 227.392 56.2653 227.392 54.9213C227.392 53.8413 227.116 52.9773 226.564 52.3293C226.012 51.6573 225.328 51.1653 224.512 50.8533C223.696 50.5173 222.568 50.1573 221.128 49.7733C219.448 49.3173 218.116 48.8733 217.132 48.4413C216.148 48.0093 215.308 47.3373 214.612 46.4253C213.916 45.5133 213.568 44.2773 213.568 42.7173C213.568 41.4213 213.904 40.2693 214.576 39.2613C215.248 38.2293 216.196 37.4253 217.42 36.8493C218.644 36.2733 220.048 35.9853 221.632 35.9853C223.96 35.9853 225.832 36.5613 227.248 37.7133C228.688 38.8413 229.516 40.3053 229.732 42.1053H226.996C226.828 41.0733 226.264 40.1613 225.304 39.3693C224.344 38.5533 223.048 38.1453 221.416 38.1453C219.904 38.1453 218.644 38.5533 217.636 39.3693C216.628 40.1613 216.124 41.2533 216.124 42.6453C216.124 43.7013 216.4 44.5533 216.952 45.2013C217.504 45.8493 218.188 46.3413 219.004 46.6773C219.844 47.0133 220.972 47.3733 222.388 47.7573C224.02 48.2133 225.34 48.6693 226.348 49.1253C227.356 49.5573 228.208 50.2293 228.904 51.1413C229.6 52.0533 229.948 53.2773 229.948 54.8133C229.948 55.9893 229.636 57.1053 229.012 58.1613C228.388 59.2173 227.464 60.0693 226.24 60.7173C225.016 61.3653 223.552 61.6893 221.848 61.6893ZM238.094 43.9053V56.1093C238.094 57.3093 238.322 58.1373 238.778 58.5933C239.234 59.0493 240.038 59.2773 241.19 59.2773H243.494V61.4373H240.794C239.018 61.4373 237.698 61.0293 236.834 60.2133C235.97 59.3733 235.538 58.0053 235.538 56.1093V43.9053H232.802V41.7813H235.538V36.8493H238.094V41.7813H243.494V43.9053H238.094ZM256.254 61.7253C254.406 61.7253 252.738 61.3173 251.25 60.5013C249.786 59.6613 248.622 58.4853 247.758 56.9733C246.918 55.4373 246.498 53.6493 246.498 51.6093C246.498 49.5693 246.93 47.7933 247.794 46.2813C248.658 44.7453 249.834 43.5693 251.322 42.7533C252.81 41.9133 254.478 41.4933 256.326 41.4933C258.174 41.4933 259.842 41.9133 261.33 42.7533C262.842 43.5693 264.018 44.7453 264.858 46.2813C265.722 47.7933 266.154 49.5693 266.154 51.6093C266.154 53.6253 265.722 55.4013 264.858 56.9373C263.994 58.4733 262.806 59.6613 261.294 60.5013C259.782 61.3173 258.102 61.7253 256.254 61.7253ZM256.254 59.5293C257.55 59.5293 258.75 59.2413 259.854 58.6653C260.958 58.0653 261.846 57.1773 262.518 56.0013C263.214 54.8013 263.562 53.3373 263.562 51.6093C263.562 49.8813 263.226 48.4293 262.554 47.2533C261.882 46.0533 260.994 45.1653 259.89 44.5893C258.786 43.9893 257.586 43.6893 256.29 43.6893C254.994 43.6893 253.794 43.9893 252.69 44.5893C251.586 45.1653 250.698 46.0533 250.026 47.2533C249.378 48.4293 249.054 49.8813 249.054 51.6093C249.054 53.3373 249.378 54.8013 250.026 56.0013C250.698 57.1773 251.574 58.0653 252.654 58.6653C253.758 59.2413 254.958 59.5293 256.254 59.5293ZM273.267 45.2733C273.819 44.0493 274.659 43.1013 275.787 42.4293C276.939 41.7573 278.343 41.4213 279.999 41.4213V44.0493H279.315C277.491 44.0493 276.027 44.5413 274.923 45.5253C273.819 46.5093 273.267 48.1533 273.267 50.4573V61.4373H270.747V41.7813H273.267V45.2733ZM301.574 50.6013C301.574 51.4653 301.55 52.1253 301.502 52.5813H285.194C285.266 54.0693 285.626 55.3413 286.274 56.3973C286.922 57.4533 287.774 58.2573 288.83 58.8093C289.886 59.3373 291.038 59.6013 292.286 59.6013C293.918 59.6013 295.286 59.2053 296.39 58.4133C297.518 57.6213 298.262 56.5533 298.622 55.2093H301.286C300.806 57.1293 299.774 58.7013 298.19 59.9253C296.63 61.1253 294.662 61.7253 292.286 61.7253C290.438 61.7253 288.782 61.3173 287.318 60.5013C285.854 59.6613 284.702 58.4853 283.862 56.9733C283.046 55.4373 282.638 53.6493 282.638 51.6093C282.638 49.5693 283.046 47.7813 283.862 46.2453C284.678 44.7093 285.818 43.5333 287.282 42.7173C288.746 41.9013 290.414 41.4933 292.286 41.4933C294.158 41.4933 295.79 41.9013 297.182 42.7173C298.598 43.5333 299.678 44.6373 300.422 46.0293C301.19 47.3973 301.574 48.9213 301.574 50.6013ZM299.018 50.5293C299.042 49.0653 298.742 47.8173 298.118 46.7853C297.518 45.7533 296.69 44.9733 295.634 44.4453C294.578 43.9173 293.426 43.6533 292.178 43.6533C290.306 43.6533 288.71 44.2533 287.39 45.4533C286.07 46.6533 285.338 48.3453 285.194 50.5293H299.018Z" fill="white"/>
</g>
<defs>
<filter id="filter0_d_174_70" x="0" y="0" width="366" height="104" filterUnits="userSpaceOnUse" color-interpolation-filters="sRGB">
<feFlood flood-opacity="0" result="BackgroundImageFix"/>
<feColorMatrix in="SourceAlpha" type="matrix" values="0 0 0 0 0 0 0 0 0 0 0 0 0 0 0 0 0 0 127 0" result="hardAlpha"/>
<feOffset dy="4"/>
<feGaussianBlur stdDeviation="2"/>
<feComposite in2="hardAlpha" operator="out"/>
<feColorMatrix type="matrix" values="0 0 0 0 0 0 0 0 0 0 0 0 0 0 0 0 0 0 0.25 0"/>
<feBlend mode="normal" in2="BackgroundImageFix" result="effect1_dropShadow_174_70"/>
<feBlend mode="normal" in="SourceGraphic" in2="effect1_dropShadow_174_70" result="shape"/>
</filter>
</defs>
</svg>
