<svg width="358" height="96" viewBox="0 0 358 96" fill="none" xmlns="http://www.w3.org/2000/svg">
<rect width="358" height="96" rx="48" fill="black" fill-opacity="0.91"/>
<path d="M76.4278 67.6119C74.2117 69.7884 71.792 69.4447 69.4628 68.4138C66.998 67.3599 64.7367 67.314 62.1361 68.4138C58.8798 69.8342 57.1612 69.4218 55.2164 67.6119C44.1811 56.0878 45.8093 38.5382 58.3371 37.8967C61.3899 38.0571 63.5155 39.5921 65.302 39.7296C67.9704 39.1797 70.5257 37.5989 73.375 37.8051C76.7896 38.08 79.3675 39.4547 81.0635 41.929C74.0081 46.2133 75.6815 55.6296 82.1489 58.2643C80.86 61.7009 79.1866 65.1146 76.4052 67.6348L76.4278 67.6119ZM65.0759 37.7593C64.7367 32.6502 68.8297 28.4346 73.5333 28.0222C74.189 33.9332 68.2417 38.332 65.0759 37.7593Z" fill="white"/>
<path d="M134.46 55.024H123.012L120.816 61H118.152L127.332 36.16H130.176L139.32 61H136.656L134.46 55.024ZM133.704 52.936L128.736 39.328L123.768 52.936H133.704ZM145.848 45.664C146.472 44.344 147.456 43.252 148.8 42.388C150.168 41.5 151.788 41.056 153.66 41.056C155.436 41.056 157.032 41.476 158.448 42.316C159.888 43.132 161.004 44.308 161.796 45.844C162.612 47.356 163.02 49.12 163.02 51.136C163.02 53.152 162.612 54.928 161.796 56.464C161.004 58 159.888 59.188 158.448 60.028C157.032 60.868 155.436 61.288 153.66 61.288C151.812 61.288 150.204 60.856 148.836 59.992C147.468 59.104 146.472 58 145.848 56.68V70.288H143.364V41.344H145.848V45.664ZM160.464 51.136C160.464 49.504 160.14 48.1 159.492 46.924C158.868 45.724 158.004 44.812 156.9 44.188C155.796 43.564 154.548 43.252 153.156 43.252C151.812 43.252 150.576 43.576 149.448 44.224C148.344 44.872 147.468 45.796 146.82 46.996C146.172 48.196 145.848 49.588 145.848 51.172C145.848 52.756 146.172 54.148 146.82 55.348C147.468 56.548 148.344 57.472 149.448 58.12C150.576 58.768 151.812 59.092 153.156 59.092C154.548 59.092 155.796 58.78 156.9 58.156C158.004 57.508 158.868 56.584 159.492 55.384C160.14 54.16 160.464 52.744 160.464 51.136ZM170.141 45.664C170.765 44.344 171.749 43.252 173.093 42.388C174.461 41.5 176.081 41.056 177.953 41.056C179.729 41.056 181.325 41.476 182.741 42.316C184.181 43.132 185.297 44.308 186.089 45.844C186.905 47.356 187.313 49.12 187.313 51.136C187.313 53.152 186.905 54.928 186.089 56.464C185.297 58 184.181 59.188 182.741 60.028C181.325 60.868 179.729 61.288 177.953 61.288C176.105 61.288 174.497 60.856 173.129 59.992C171.761 59.104 170.765 58 170.141 56.68V70.288H167.657V41.344H170.141V45.664ZM184.757 51.136C184.757 49.504 184.433 48.1 183.785 46.924C183.161 45.724 182.297 44.812 181.193 44.188C180.089 43.564 178.841 43.252 177.449 43.252C176.105 43.252 174.869 43.576 173.741 44.224C172.637 44.872 171.761 45.796 171.113 46.996C170.465 48.196 170.141 49.588 170.141 51.172C170.141 52.756 170.465 54.148 171.113 55.348C171.761 56.548 172.637 57.472 173.741 58.12C174.869 58.768 176.105 59.092 177.449 59.092C178.841 59.092 180.089 58.78 181.193 58.156C182.297 57.508 183.161 56.584 183.785 55.384C184.433 54.16 184.757 52.744 184.757 51.136ZM209.461 61.252C207.805 61.252 206.341 60.964 205.069 60.388C203.821 59.812 202.837 59.008 202.117 57.976C201.397 56.944 201.013 55.792 200.965 54.52H203.629C203.749 55.744 204.289 56.824 205.249 57.76C206.209 58.672 207.613 59.128 209.461 59.128C211.165 59.128 212.509 58.696 213.493 57.832C214.501 56.944 215.005 55.828 215.005 54.484C215.005 53.404 214.729 52.54 214.177 51.892C213.625 51.22 212.941 50.728 212.125 50.416C211.309 50.08 210.181 49.72 208.741 49.336C207.061 48.88 205.729 48.436 204.745 48.004C203.761 47.572 202.921 46.9 202.225 45.988C201.529 45.076 201.181 43.84 201.181 42.28C201.181 40.984 201.517 39.832 202.189 38.824C202.861 37.792 203.809 36.988 205.033 36.412C206.257 35.836 207.661 35.548 209.245 35.548C211.573 35.548 213.445 36.124 214.861 37.276C216.301 38.404 217.129 39.868 217.345 41.668H214.609C214.441 40.636 213.877 39.724 212.917 38.932C211.957 38.116 210.661 37.708 209.029 37.708C207.517 37.708 206.257 38.116 205.249 38.932C204.241 39.724 203.737 40.816 203.737 42.208C203.737 43.264 204.013 44.116 204.565 44.764C205.117 45.412 205.801 45.904 206.617 46.24C207.457 46.576 208.585 46.936 210.001 47.32C211.633 47.776 212.953 48.232 213.961 48.688C214.969 49.12 215.821 49.792 216.517 50.704C217.213 51.616 217.561 52.84 217.561 54.376C217.561 55.552 217.249 56.668 216.625 57.724C216.001 58.78 215.077 59.632 213.853 60.28C212.629 60.928 211.165 61.252 209.461 61.252ZM225.707 43.468V55.672C225.707 56.872 225.935 57.7 226.391 58.156C226.847 58.612 227.651 58.84 228.803 58.84H231.107V61H228.407C226.631 61 225.311 60.592 224.447 59.776C223.583 58.936 223.151 57.568 223.151 55.672V43.468H220.415V41.344H223.151V36.412H225.707V41.344H231.107V43.468H225.707ZM243.867 61.288C242.019 61.288 240.351 60.88 238.863 60.064C237.399 59.224 236.235 58.048 235.371 56.536C234.531 55 234.111 53.212 234.111 51.172C234.111 49.132 234.543 47.356 235.407 45.844C236.271 44.308 237.447 43.132 238.935 42.316C240.423 41.476 242.091 41.056 243.939 41.056C245.787 41.056 247.455 41.476 248.943 42.316C250.455 43.132 251.631 44.308 252.471 45.844C253.335 47.356 253.767 49.132 253.767 51.172C253.767 53.188 253.335 54.964 252.471 56.5C251.607 58.036 250.419 59.224 248.907 60.064C247.395 60.88 245.715 61.288 243.867 61.288ZM243.867 59.092C245.163 59.092 246.363 58.804 247.467 58.228C248.571 57.628 249.459 56.74 250.131 55.564C250.827 54.364 251.175 52.9 251.175 51.172C251.175 49.444 250.839 47.992 250.167 46.816C249.495 45.616 248.607 44.728 247.503 44.152C246.399 43.552 245.199 43.252 243.903 43.252C242.607 43.252 241.407 43.552 240.303 44.152C239.199 44.728 238.311 45.616 237.639 46.816C236.991 47.992 236.667 49.444 236.667 51.172C236.667 52.9 236.991 54.364 237.639 55.564C238.311 56.74 239.187 57.628 240.267 58.228C241.371 58.804 242.571 59.092 243.867 59.092ZM260.88 44.836C261.432 43.612 262.272 42.664 263.4 41.992C264.552 41.32 265.956 40.984 267.612 40.984V43.612H266.928C265.104 43.612 263.64 44.104 262.536 45.088C261.432 46.072 260.88 47.716 260.88 50.02V61H258.36V41.344H260.88V44.836ZM289.187 50.164C289.187 51.028 289.163 51.688 289.115 52.144H272.807C272.879 53.632 273.239 54.904 273.887 55.96C274.535 57.016 275.387 57.82 276.443 58.372C277.499 58.9 278.651 59.164 279.899 59.164C281.531 59.164 282.899 58.768 284.003 57.976C285.131 57.184 285.875 56.116 286.235 54.772H288.899C288.419 56.692 287.387 58.264 285.803 59.488C284.243 60.688 282.275 61.288 279.899 61.288C278.051 61.288 276.395 60.88 274.931 60.064C273.467 59.224 272.315 58.048 271.475 56.536C270.659 55 270.251 53.212 270.251 51.172C270.251 49.132 270.659 47.344 271.475 45.808C272.291 44.272 273.431 43.096 274.895 42.28C276.359 41.464 278.027 41.056 279.899 41.056C281.771 41.056 283.403 41.464 284.795 42.28C286.211 43.096 287.291 44.2 288.035 45.592C288.803 46.96 289.187 48.484 289.187 50.164ZM286.631 50.092C286.655 48.628 286.355 47.38 285.731 46.348C285.131 45.316 284.303 44.536 283.247 44.008C282.191 43.48 281.039 43.216 279.791 43.216C277.919 43.216 276.323 43.816 275.003 45.016C273.683 46.216 272.951 47.908 272.807 50.092H286.631Z" fill="white"/>
</svg>
