<svg width="49" height="50" viewBox="0 0 49 50" fill="none" xmlns="http://www.w3.org/2000/svg">
<g clip-path="url(#clip0_168_206)">
<path d="M24.4966 49.5001L44.2888 38.0712L36.7026 33.6838L28.9468 38.1642C28.8807 38.2006 28.8064 38.2193 28.731 38.2187C28.6556 38.2181 28.5816 38.1982 28.5161 38.1608C28.4507 38.1227 28.3963 38.0682 28.3582 38.0028C28.3201 37.9374 28.2996 37.8632 28.2987 37.7876V27.1469C28.2987 26.8334 28.461 26.5497 28.7324 26.3935L37.9482 21.0713C38.0139 21.0339 38.0883 21.0145 38.1639 21.0151C38.2394 21.0157 38.3135 21.0362 38.3785 21.0747C38.5133 21.1494 38.5975 21.2906 38.599 21.4445V30.4016L46.1902 34.7863V11.929L24.4962 24.4511L24.4966 49.5001Z" fill="white"/>
<path d="M20.0582 38.1691L12.2986 33.6833L4.70665 38.0704L24.4965 49.5V24.451L2.80981 11.9285V34.7847L10.3991 30.4015V21.4452C10.4025 21.2917 10.4852 21.1504 10.618 21.0754C10.6835 21.0369 10.7579 21.0163 10.8339 21.0157C10.9098 21.0151 10.9846 21.0345 11.0506 21.0719L20.271 26.3934C20.4031 26.4701 20.5127 26.5801 20.5888 26.7125C20.6649 26.8448 20.7049 26.9949 20.7048 27.1476V37.7897C20.7039 37.8656 20.6835 37.9399 20.6456 38.0056C20.6078 38.0713 20.5536 38.1261 20.4885 38.1649C20.4234 38.2031 20.3494 38.2236 20.2739 38.2244C20.1985 38.2252 20.1241 38.2063 20.0582 38.1695" fill="white"/>
<path d="M26.3984 0.5V9.26641L34.1545 13.7442C34.2877 13.8219 34.367 13.9647 34.367 14.1209C34.367 14.2751 34.2858 14.4164 34.1545 14.4941L24.9352 19.8198C24.8027 19.8949 24.653 19.9343 24.5008 19.9343C24.3485 19.9343 24.1988 19.8949 24.0663 19.8198L14.8497 14.4941C14.7843 14.4562 14.73 14.4018 14.6924 14.3363C14.6547 14.2707 14.635 14.1964 14.6353 14.1209C14.6346 14.0447 14.6541 13.9698 14.6917 13.9036C14.7294 13.8375 14.7839 13.7825 14.8497 13.7442L22.6043 9.26641V0.5L2.80945 11.9289L24.4965 24.451L46.1886 11.9293L26.3984 0.5Z" fill="white"/>
</g>
<defs>
<clipPath id="clip0_168_206">
<rect width="49" height="49" fill="white" transform="translate(0 0.5)"/>
</clipPath>
</defs>
</svg>
