<svg width="21" height="20" viewBox="0 0 21 20" fill="none" xmlns="http://www.w3.org/2000/svg">
<path d="M14.2453 2.03211C15.3424 2.03527 16.3936 2.45603 17.1693 3.20252C17.9451 3.94901 18.3823 4.96055 18.3856 6.01624V13.9836C18.3823 15.0393 17.9451 16.0509 17.1693 16.7974C16.3936 17.5438 15.3424 17.9646 14.2453 17.9678H5.96555C4.86848 17.9646 3.81728 17.5438 3.04152 16.7974C2.26577 16.0509 1.82851 15.0393 1.82523 13.9836V6.01624C1.82851 4.96055 2.26577 3.94901 3.04152 3.20252C3.81728 2.45603 4.86848 2.03527 5.96555 2.03211H14.2453ZM14.2453 0.438721H5.96555C2.77759 0.438721 0.169373 2.94854 0.169373 6.01624V13.9836C0.169373 17.0513 2.77759 19.5612 5.96555 19.5612H14.2453C17.4333 19.5612 20.0415 17.0513 20.0415 13.9836V6.01624C20.0415 2.94854 17.4333 0.438721 14.2453 0.438721Z" fill="white"/>
<path d="M15.4874 6.01628C15.2417 6.01628 15.0016 5.94619 14.7973 5.81486C14.5931 5.68354 14.4339 5.49688 14.3399 5.27849C14.2459 5.06011 14.2213 4.8198 14.2692 4.58797C14.3171 4.35613 14.4354 4.14317 14.6091 3.97603C14.7828 3.80888 15.0041 3.69506 15.2451 3.64894C15.486 3.60283 15.7357 3.62649 15.9627 3.71695C16.1896 3.80741 16.3836 3.9606 16.5201 4.15714C16.6565 4.35368 16.7294 4.58475 16.7294 4.82113C16.7297 4.97817 16.6978 5.13374 16.6355 5.27889C16.5732 5.42405 16.4818 5.55594 16.3664 5.66698C16.251 5.77803 16.1139 5.86605 15.9631 5.92599C15.8122 5.98594 15.6506 6.01662 15.4874 6.01628ZM10.1055 6.81277C10.7606 6.81277 11.4009 6.99969 11.9456 7.34991C12.4903 7.70012 12.9148 8.1979 13.1655 8.78029C13.4162 9.36267 13.4818 10.0035 13.354 10.6218C13.2262 11.24 12.9107 11.8079 12.4475 12.2537C11.9843 12.6994 11.3941 13.003 10.7517 13.126C10.1092 13.2489 9.44319 13.1858 8.83797 12.9446C8.23275 12.7034 7.71546 12.2948 7.35151 11.7707C6.98757 11.2466 6.79331 10.6304 6.79331 9.99998C6.79425 9.15496 7.14351 8.3448 7.76446 7.74728C8.38541 7.14975 9.22733 6.81367 10.1055 6.81277ZM10.1055 5.21937C9.1229 5.21937 8.16238 5.49975 7.34539 6.02505C6.5284 6.55035 5.89164 7.29698 5.51562 8.17052C5.1396 9.04406 5.04122 10.0053 5.23291 10.9326C5.42461 11.86 5.89776 12.7118 6.59255 13.3804C7.28735 14.049 8.17256 14.5043 9.13627 14.6887C10.1 14.8732 11.0989 14.7785 12.0067 14.4167C12.9144 14.0549 13.6903 13.4421 14.2362 12.6559C14.7821 11.8698 15.0735 10.9455 15.0735 9.99998C15.0735 8.73208 14.5501 7.51612 13.6184 6.61958C12.6867 5.72304 11.4231 5.21937 10.1055 5.21937Z" fill="white"/>
</svg>
