<svg width="29" height="29" viewBox="0 0 29 29" fill="none" xmlns="http://www.w3.org/2000/svg">
<g opacity="0.93">
<path d="M20.5415 2.41645C22.1424 2.42123 23.6765 3.05934 24.8086 4.19142C25.9407 5.3235 26.5788 6.85756 26.5835 8.45855V20.5415C26.5788 22.1424 25.9407 23.6765 24.8086 24.8086C23.6765 25.9407 22.1424 26.5788 20.5415 26.5835H8.45855C6.85756 26.5788 5.3235 25.9407 4.19142 24.8086C3.05934 23.6765 2.42123 22.1424 2.41645 20.5415V8.45855C2.42123 6.85756 3.05934 5.3235 4.19142 4.19142C5.3235 3.05934 6.85756 2.42123 8.45855 2.41645H20.5415ZM20.5415 0H8.45855C3.80625 0 0 3.80625 0 8.45855V20.5415C0 25.1937 3.80625 29 8.45855 29H20.5415C25.1937 29 29 25.1937 29 20.5415V8.45855C29 3.80625 25.1937 0 20.5415 0Z" fill="black"/>
<path d="M22.3539 8.45874C21.9955 8.45874 21.645 8.35244 21.347 8.15328C21.0489 7.95412 20.8166 7.67105 20.6794 7.33985C20.5422 7.00866 20.5063 6.64423 20.5763 6.29264C20.6462 5.94105 20.8188 5.61809 21.0723 5.36461C21.3258 5.11113 21.6488 4.9385 22.0003 4.86857C22.3519 4.79863 22.7164 4.83453 23.0476 4.97171C23.3788 5.10889 23.6618 5.34121 23.861 5.63927C24.0601 5.93733 24.1664 6.28776 24.1664 6.64624C24.167 6.88441 24.1204 7.12033 24.0295 7.34046C23.9386 7.56059 23.8051 7.76061 23.6367 7.92901C23.4683 8.09742 23.2683 8.23091 23.0482 8.32182C22.828 8.41272 22.5921 8.45925 22.3539 8.45874ZM14.5 9.66664C15.456 9.66664 16.3905 9.95013 17.1854 10.4812C17.9802 11.0124 18.5998 11.7673 18.9656 12.6505C19.3315 13.5337 19.4272 14.5056 19.2407 15.4432C19.0542 16.3808 18.5938 17.242 17.9178 17.918C17.2419 18.594 16.3806 19.0544 15.443 19.2409C14.5054 19.4274 13.5335 19.3316 12.6503 18.9658C11.7671 18.6 11.0122 17.9804 10.4811 17.1856C9.94994 16.3907 9.66645 15.4562 9.66645 14.5002C9.66782 13.2187 10.1775 11.99 11.0837 11.0839C11.9898 10.1777 13.2185 9.66801 14.5 9.66664ZM14.5 7.25019C13.0661 7.25019 11.6644 7.6754 10.4721 8.47204C9.27986 9.26868 8.35061 10.401 7.80188 11.7257C7.25314 13.0505 7.10957 14.5082 7.38931 15.9146C7.66905 17.321 8.35955 18.6128 9.37348 19.6267C10.3874 20.6406 11.6792 21.3311 13.0856 21.6109C14.492 21.8906 15.9497 21.7471 17.2745 21.1983C18.5992 20.6496 19.7315 19.7203 20.5282 18.5281C21.3248 17.3358 21.75 15.9341 21.75 14.5002C21.75 12.5774 20.9862 10.7333 19.6265 9.37367C18.2669 8.01403 16.4228 7.25019 14.5 7.25019Z" fill="black"/>
</g>
</svg>
