<svg width="20" height="20" viewBox="0 0 20 20" fill="none" xmlns="http://www.w3.org/2000/svg">
<path d="M18.4413 0.290771H2.23516C1.34963 0.290771 0.575928 0.927936 0.575928 1.80306V18.0451C0.575928 18.925 1.34963 19.7091 2.23516 19.7091H18.4365C19.3268 19.7091 19.9943 18.9198 19.9943 18.0451V1.80306C19.9995 0.927936 19.3268 0.290771 18.4413 0.290771ZM6.59519 16.4769H3.81333V7.82752H6.59519V16.4769ZM5.30048 6.51245H5.28055C4.39025 6.51245 3.81377 5.84971 3.81377 5.0201C3.81377 4.17531 4.40542 3.52818 5.31565 3.52818C6.22589 3.52818 6.78287 4.17054 6.80281 5.0201C6.80237 5.84971 6.22589 6.51245 5.30048 6.51245ZM16.7621 16.4769H13.9802V11.7476C13.9802 10.6146 13.5754 9.84044 12.5689 9.84044C11.8 9.84044 11.3449 10.3606 11.1425 10.8673C11.0666 11.0493 11.0462 11.2973 11.0462 11.5504V16.4769H8.26438V7.82752H11.0462V9.0312C11.4511 8.45472 12.0835 7.6251 13.555 7.6251C15.3811 7.6251 16.7625 8.82878 16.7625 11.4238L16.7621 16.4769Z" fill="white"/>
</svg>
