<svg width="22" height="22" viewBox="0 0 22 22" fill="none" xmlns="http://www.w3.org/2000/svg">
<path d="M16.0687 13.3892C16.0687 14.3132 16.3316 14.6817 17.0191 14.6817C18.5514 14.6817 19.5271 12.7292 19.5271 9.48205C19.5271 4.51885 15.9103 2.14285 11.3948 2.14285C6.74954 2.14285 2.52444 5.25805 2.52444 11.1452C2.52444 16.7684 6.22044 19.8308 11.8964 19.8308C13.8236 19.8308 15.1172 19.6196 17.0961 18.9597L17.5207 20.7274C15.5671 21.3621 13.4793 21.5457 11.87 21.5457C4.42524 21.5457 0.437744 17.4537 0.437744 11.1441C0.437744 4.78175 5.05885 0.452148 11.4212 0.452148C18.0476 0.452148 21.5577 4.41215 21.5577 9.26975C21.5577 13.3881 20.2652 16.5297 16.1996 16.5297C14.3505 16.5297 13.1372 15.7905 12.9788 14.1526C12.5036 15.9742 11.2364 16.5297 9.51935 16.5297C7.22254 16.5297 5.29534 14.7598 5.29534 11.1969C5.29534 7.60655 6.98604 5.38895 10.022 5.38895C11.6324 5.38895 12.6356 6.02255 13.0822 7.02575L13.8489 5.62655H16.0665V13.3892H16.0687ZM12.8226 9.90445C12.8226 8.45355 11.7391 7.84525 10.8415 7.84525C9.86474 7.84525 8.78344 8.63615 8.78344 10.9604C8.78344 12.8084 9.60184 13.838 10.8415 13.838C11.7127 13.838 12.8226 13.2836 12.8226 11.7524V9.90445Z" fill="white"/>
</svg>
