<svg width="18" height="18" viewBox="0 0 18 18" fill="none" xmlns="http://www.w3.org/2000/svg">
<path d="M17.1099 11.6177L13.0614 9.80359L13.0502 9.79843C12.8401 9.70854 12.6108 9.67246 12.3832 9.69347C12.1555 9.71447 11.9367 9.7919 11.7466 9.91874C11.7242 9.93353 11.7027 9.9496 11.6821 9.96687L9.5904 11.7501C8.26524 11.1064 6.89712 9.74859 6.25345 8.44062L8.03923 6.3171C8.05641 6.29562 8.07274 6.27413 8.08821 6.25093C8.21233 6.06127 8.28763 5.84386 8.30743 5.61806C8.32722 5.39226 8.29088 5.16507 8.20165 4.95671V4.9464L6.38235 0.891008C6.26439 0.618813 6.06157 0.392067 5.80415 0.244619C5.54674 0.0971703 5.24854 0.0369273 4.95407 0.0728827C3.78959 0.226115 2.72071 0.797996 1.94706 1.68171C1.17341 2.56543 0.747902 3.70055 0.750008 4.87507C0.750008 11.6985 6.30157 17.2501 13.125 17.2501C14.2995 17.2522 15.4346 16.8267 16.3184 16.053C17.2021 15.2794 17.774 14.2105 17.9272 13.046C17.9632 12.7516 17.9031 12.4535 17.7558 12.1961C17.6085 11.9387 17.382 11.7358 17.1099 11.6177ZM13.125 15.8751C10.2086 15.8719 7.41256 14.7119 5.35035 12.6497C3.28814 10.5875 2.12819 7.79147 2.12501 4.87507C2.12177 4.03588 2.42411 3.22421 2.97556 2.59163C3.52701 1.95905 4.28986 1.54883 5.12165 1.43757C5.12131 1.441 5.12131 1.44445 5.12165 1.44788L6.92634 5.48695L5.15001 7.61304C5.13198 7.63378 5.1156 7.65591 5.10102 7.67921C4.9717 7.87766 4.89583 8.10614 4.88078 8.34253C4.86572 8.57891 4.91199 8.81518 5.01509 9.02843C5.79368 10.6209 7.39813 12.2133 9.00774 12.991C9.22256 13.0931 9.46019 13.1378 9.69743 13.1206C9.93467 13.1035 10.1634 13.025 10.3613 12.893C10.3833 12.8782 10.4046 12.8621 10.4249 12.8449L12.514 11.0626L16.5531 12.8716H16.5625C16.4526 13.7045 16.043 14.4689 15.4103 15.0217C14.7776 15.5745 13.9652 15.8779 13.125 15.8751Z" fill="white"/>
</svg>
