<svg width="29" height="29" viewBox="0 0 29 29" fill="none" xmlns="http://www.w3.org/2000/svg">
<path d="M26.6806 0H2.47794C1.15547 0 0 0.951562 0 2.2585V26.5149C0 27.829 1.15547 29 2.47794 29H26.6735C28.0031 29 29 27.8212 29 26.5149V2.2585C29.0077 0.951562 28.0031 0 26.6806 0ZM8.98934 24.1729H4.83484V11.2556H8.98934V24.1729ZM7.05579 9.29165H7.02602C5.69642 9.29165 4.83548 8.3019 4.83548 7.06292C4.83548 5.80129 5.71908 4.83484 7.07845 4.83484C8.43782 4.83484 9.26963 5.79417 9.29941 7.06292C9.29876 8.3019 8.43782 9.29165 7.05579 9.29165ZM24.1729 24.1729H20.0184V17.11C20.0184 15.4179 19.4138 14.2618 17.9107 14.2618C16.7624 14.2618 16.0827 15.0386 15.7804 15.7953C15.6671 16.0672 15.6367 16.4374 15.6367 16.8155V24.1729H11.4822V11.2556H15.6367V13.0532C16.2413 12.1923 17.1857 10.9533 19.3834 10.9533C22.1105 10.9533 24.1735 12.7509 24.1735 16.6265L24.1729 24.1729Z" fill="black"/>
</svg>
